<svg xmlns="http://www.w3.org/2000/svg" viewBox="0 0 128 128">
  <defs>
    <style>
      .favicon { fill: #1a1a1a; }
      @media (prefers-color-scheme: dark) {
        .favicon { fill: #ffffff; }
      }
    </style>
  </defs>
  <!-- LD Monogram - Bold, geometric, works at small sizes -->
  <g class="favicon">
    <!-- L shape - vertical bar with bottom horizontal -->
    <path d="M 20 16 L 28 16 L 28 72 L 56 72 L 56 80 L 20 80 Z" />
    <!-- D shape -->
    <path d="M 68 16 L 88 16 C 97.333 16 105.333 19.333 112 26 C 118.667 32.667 122 41.333 122 52 C 122 62.667 118.667 71.333 112 78 C 105.333 84.667 97.333 88 88 88 L 68 88 Z M 76 24 L 76 80 L 88 80 C 94.667 80 100 77.333 104 72 C 108 66.667 110 60 110 52 C 110 44 108 37.333 104 32 C 100 26.667 94.667 24 88 24 Z" />
  </g>
</svg>
